{"title":"Legion R5 LiNE XViD - IMAGiNE","uid":5377299,"size":1587152134,"categoryP":"video","categoryS":"movies","magnet":"?xt=urn:btih:15607976cac3d84516dc165084aa8e32c8275103&amp;dn=Legion+R5+LiNE+XViD+-+IMAGiNE&amp;tr=udp%3A%2F%2Ftracker.openbittorrent.com%3A80&amp;tr=udp%3A%2F%2Fopen.demonii.com%3A1337&amp;tr=udp%3A%2F%2Ftracker.coppersurfer.tk%3A6969&amp;tr=udp%3A%2F%2Fexodus.desync.com%3A6969","seeders":0,"leechers":1,"uploader":"IwannaFan2","files":-1,"time":1266613431,"description":"Filename:\nLegion R5 LiNE XViD - IMAGiNE\n &lt;a href=&quot;\nhttp://www.imdb.com/title/tt1038686/&quot; rel=&quot;nofollow&quot; target=&quot;_NEW&quot;&gt;\nhttp://www.imdb.com/title/tt1038686/&lt;/a&gt;\n\nDETAILS:\n\nVideo\nID                               : 0\nFormat                           : MPEG-4 Visual\nFormat profile                   : Advanced Simple@L5\nFormat settings, BVOP            : Yes\nFormat settings, QPel            : No\nFormat settings, GMC             : No warppoints\nFormat settings, Matrix          : Default (H.263)\nMuxing mode                      : Packed bitstream\nCodec ID                         : XVID\nCodec ID/Hint                    : XviD\nDuration                         : 1h 35mn\nBit rate                         : 2 043 Kbps\nWidth                            : 704 pixels\nHeight                           : 288 pixels\nDisplay aspect ratio             : 2.444\nFrame rate                       : 25.000 fps\nResolution                       : 24 bits\nColorimetry                      : 4:2:0\nScan type                        : Progressive\nBits/(Pixel*Frame)               : 0.403\nStream size                      : 1.37 GiB (94%)\nWriting library                  : XviD 1.2.1 (UTC 2008-12-04)\n\nAudio\nID                               : 1\nFormat                           : MPEG Audio\nFormat version                   : Version 1\nFormat profile                   : Layer 3\nCodec ID                         : 55\nCodec ID/Hint                    : MP3\nDuration                         : 1h 35mn\nBit rate mode                    : Constant\nBit rate                         : 128 Kbps\nChannel(s)                       : 2 channels\nSampling rate                    : 44.1 KHz\nResolution                       : 16 bits\nStream size                      : 87.9 MiB (6%)\nAlignment                        : Split accross interleaves\nInterleave, duration             : 40 ms (1.00 video frame)\nInterleave, preload duration     : 500 ms\n\n\nNOTES:\n\nIMAGiNE bringing you another release.....\nThis time round it's the R5 of Legion.......and yes it has FULL LINE ENG audio\nSources used .....russian dvdr,mentons audio,our own audio..........thanks to all.\nRight now for this we had our own audio but we had problems with loud scenes and even after filtering the problems\nwere still there,so we opted to taken mentions audio and add our audio from 1hr 25mins 18sec until the end and then\nfilter it and create a new audio file.\nVideo we ripped the dvdr and done our usual tweaks.....making it brighter,fixing colours,some sharpness etc....\nOnce all done it was a case of syncing the new audio file up to the video....\n\nAnyway skimmed through,looks and sounds pretty good to us.....audio could be better but,hell can't win them all\nOh also we've added a proof sample aswell so people can see the part when all the other were in russian....we only did\na small sample of it,so we don't spoil the film for those yet to watch it ","torrent":{"xt":"urn:btih:15607976cac3d84516dc165084aa8e32c8275103","amp;dn":"Legion+R5+LiNE+XViD+-+IMAGiNE","amp;tr":["udp%3A%2F%2Ftracker.openbittorrent.com%3A80","udp%3A%2F%2Fopen.demonii.com%3A1337","udp%3A%2F%2Ftracker.coppersurfer.tk%3A6969","udp%3A%2F%2Fexodus.desync.com%3A6969"],"infoHash":"15607976cac3d84516dc165084aa8e32c8275103","infoHashBuffer":{"type":"Buffer","data":[21,96,121,118,202,195,216,69,22,220,22,80,132,170,142,50,200,39,81,3]},"announce":[],"urlList":[]}}